<?xml version="1.0" standalone="no"?>
<!DOCTYPE svg PUBLIC "-//W3C//DTD SVG 20010904//EN"
 "http://www.w3.org/TR/2001/REC-SVG-20010904/DTD/svg10.dtd">
<svg version="1.0" xmlns="http://www.w3.org/2000/svg"
 width="512.000000pt" height="512.000000pt" viewBox="0 0 512.000000 512.000000"
 preserveAspectRatio="xMidYMid meet">
<metadata>
Created by potrace 1.11, written by Peter Selinger 2001-2013
</metadata>
<g transform="translate(0.000000,512.000000) scale(0.100000,-0.100000)"
fill="#000000" stroke="none">
<path d="M2390 3905 c-263 -53 -483 -226 -595 -468 -89 -193 -97 -436 -20
-626 37 -89 146 -281 272 -477 281 -435 398 -677 483 -998 16 -59 31 -110 33
-112 2 -3 10 24 17 58 20 96 95 321 147 437 74 166 154 307 327 581 241 378
302 501 332 659 28 148 6 330 -56 467 -94 207 -257 359 -478 444 -122 46 -327
62 -462 35z"/>
</g>
</svg>
